CastoroTitling-Regular.210209-0857.ufo
<glyph name="plus" format="2">
  <advance width="509"/>
  <unicode hex="002B"/>
  <outline>
    <contour>
      <point x="463" y="326" type="line"/>
      <point x="464" y="339"/>
      <point x="464" y="356"/>
      <point x="463" y="370" type="curve"/>
      <point x="46" y="370" type="line"/>
      <point x="45" y="356"/>
      <point x="45" y="339"/>
      <point x="46" y="326" type="curve"/>
    </contour>
    <contour>
      <point x="233" y="140" type="line"/>
      <point x="245" y="139"/>
      <point x="264" y="139"/>
      <point x="277" y="140" type="curve"/>
      <point x="277" y="556" type="line"/>
      <point x="264" y="557"/>
      <point x="245" y="557"/>
      <point x="233" y="556" type="curve"/>
    </contour>
  </outline>
</glyph>
<glyph name="comma" format="2">
  <advance width="236"/>
  <unicode hex="002C"/>
  <outline>
    <contour>
      <point x="85" y="-119" type="line"/>
      <point x="144" y="-84"/>
      <point x="175" y="-31"/>
      <point x="175" y="26" type="curve" smooth="yes"/>
      <point x="175" y="70"/>
      <point x="156" y="109"/>
      <point x="114" y="109" type="curve" smooth="yes"/>
      <point x="82" y="109"/>
      <point x="60" y="87"/>
      <point x="60" y="57" type="curve" smooth="yes"/>
      <point x="60" y="29"/>
      <point x="80" y="12"/>
      <point x="102" y="12" type="curve" smooth="yes"/>
      <point x="115" y="12"/>
      <point x="127" y="17"/>
      <point x="137" y="28" type="curve"/>
      <point x="118" y="31" type="line"/>
      <point x="128" y="21"/>
      <point x="131" y="5"/>
      <point x="131" y="-8" type="curve" smooth="yes"/>
      <point x="131" y="-44"/>
      <point x="110" y="-76"/>
      <point x="72" y="-100" type="curve"/>
    </contour>
  </outline>
</glyph>
<glyph name="slash" format="2">
  <advance width="489"/>
  <unicode hex="002F"/>
  <outline>
    <contour>
      <point x="411" y="748" type="line"/>
      <point x="361" y="748" type="line"/>
      <point x="34" y="-177" type="line"/>
      <point x="81" y="-177" type="line"/>
    </contour>
  </outline>
</glyph>
<glyph name="one" format="2">
  <advance width="400"/>
  <unicode hex="0031"/>
  <outline>
    <contour>
      <point x="90" y="-1" type="curve"/>
      <point x="122" y="-1"/>
      <point x="149" y="2"/>
      <point x="209" y="2" type="curve" smooth="yes"/>
      <point x="271" y="2"/>
      <point x="295" y="-1"/>
      <point x="323" y="-1" type="curve"/>
      <point x="324" y="8"/>
      <point x="324" y="10"/>
      <point x="323" y="19" type="curve"/>
      <point x="247" y="26"/>
      <point x="245" y="26"/>
      <point x="245" y="93" type="curve" smooth="yes"/>
      <point x="245" y="604" type="line" smooth="yes"/>
      <point x="245" y="648"/>
      <point x="252" y="680"/>
      <point x="264" y="696" type="curve"/>
      <point x="261" y="703"/>
      <point x="259" y="705"/>
      <point x="254" y="711" type="curve"/>
      <point x="189" y="683"/>
      <point x="142" y="666"/>
      <point x="65" y="646" type="curve"/>
      <point x="65" y="637"/>
      <point x="66" y="634"/>
      <point x="69" y="625" type="curve"/>
      <point x="104" y="632"/>
      <point x="131" y="638"/>
      <point x="142" y="638" type="curve" smooth="yes"/>
      <point x="163" y="638"/>
      <point x="165" y="629"/>
      <point x="165" y="603" type="curve" smooth="yes"/>
      <point x="165" y="85" type="line" smooth="yes"/>
      <point x="165" y="29"/>
      <point x="164" y="26"/>
      <point x="90" y="19" type="curve"/>
      <point x="89" y="11"/>
      <point x="89" y="8"/>
    </contour>
  </outline>
</glyph>
<glyph name="eight" format="2">
  <advance width="593"/>
  <unicode hex="0038"/>
  <outline>
    <contour>
      <point x="288" y="-12" type="curve" smooth="yes"/>
      <point x="436" y="-12"/>
      <point x="531" y="75"/>
      <point x="531" y="182" type="curve" smooth="yes"/>
      <point x="531" y="288"/>
      <point x="440" y="340"/>
      <point x="355" y="384" type="curve" smooth="yes"/>
      <point x="244" y="441"/>
      <point x="169" y="477"/>
      <point x="169" y="560" type="curve" smooth="yes"/>
      <point x="169" y="625"/>
      <point x="216" y="682"/>
      <point x="300" y="682" type="curve" smooth="yes"/>
      <point x="389" y="682"/>
      <point x="426" y="618"/>
      <point x="426" y="544" type="curve" smooth="yes"/>
      <point x="426" y="463"/>
      <point x="382" y="412"/>
      <point x="332" y="392" type="curve"/>
      <point x="365" y="371" type="line"/>
      <point x="365" y="381" type="line"/>
      <point x="441" y="415"/>
      <point x="506" y="470"/>
      <point x="506" y="550" type="curve" smooth="yes"/>
      <point x="506" y="631"/>
      <point x="437" y="711"/>
      <point x="307" y="711" type="curve" smooth="yes"/>
      <point x="177" y="711"/>
      <point x="90" y="632"/>
      <point x="90" y="533" type="curve" smooth="yes"/>
      <point x="90" y="448"/>
      <point x="152" y="397"/>
      <point x="239" y="351" type="curve" smooth="yes"/>
      <point x="344" y="295"/>
      <point x="450" y="257"/>
      <point x="450" y="155" type="curve" smooth="yes"/>
      <point x="450" y="83"/>
      <point x="398" y="16"/>
      <point x="299" y="16" type="curve" smooth="yes"/>
      <point x="195" y="16"/>
      <point x="146" y="89"/>
      <point x="146" y="174" type="curve" smooth="yes"/>
      <point x="146" y="254"/>
      <point x="190" y="312"/>
      <point x="257" y="348" type="curve"/>
      <point x="224" y="368" type="line"/>
      <point x="224" y="358" type="line"/>
      <point x="134" y="319"/>
      <point x="62" y="259"/>
      <point x="62" y="167" type="curve" smooth="yes"/>
      <point x="62" y="70"/>
      <point x="143" y="-12"/>
    </contour>
  </outline>
</glyph>
<glyph name="A" format="2">
  <advance width="663"/>
  <unicode hex="0041"/>
  <unicode hex="0061"/>
  <outline>
    <contour>
      <point x="-11" y="-1" type="curve"/>
      <point x="18" y="-1"/>
      <point x="53" y="1"/>
      <point x="80" y="1" type="curve" smooth="yes"/>
      <point x="113" y="1"/>
      <point x="144" y="-1"/>
      <point x="177" y="-1" type="curve"/>
      <point x="178" y="7"/>
      <point x="178" y="11"/>
      <point x="177" y="19" type="curve"/>
      <point x="131" y="23"/>
      <point x="113" y="25"/>
      <point x="113" y="46" type="curve" smooth="yes"/>
      <point x="113" y="56"/>
      <point x="116" y="66"/>
      <point x="123" y="85" type="curve" smooth="yes"/>
      <point x="311" y="613" type="line"/>
      <point x="301" y="613" type="line"/>
      <point x="495" y="74" type="line" smooth="yes"/>
      <point x="500" y="59"/>
      <point x="503" y="50"/>
      <point x="503" y="43" type="curve" smooth="yes"/>
      <point x="503" y="24"/>
      <point x="492" y="23"/>
      <point x="445" y="19" type="curve"/>
      <point x="444" y="11"/>
      <point x="444" y="7"/>
      <point x="445" y="-1" type="curve"/>
      <point x="482" y="-1"/>
      <point x="513" y="1"/>
      <point x="550" y="1" type="curve" smooth="yes"/>
      <point x="586" y="1"/>
      <point x="633" y="-1"/>
      <point x="668" y="-1" type="curve"/>
      <point x="669" y="7"/>
      <point x="669" y="11"/>
      <point x="668" y="19" type="curve"/>
      <point x="600" y="24"/>
      <point x="598" y="25"/>
      <point x="572" y="95" type="curve" smooth="yes"/>
      <point x="348" y="705" type="line"/>
      <point x="338" y="705"/>
      <point x="320" y="703"/>
      <point x="310" y="699" type="curve"/>
      <point x="88" y="101" type="line" smooth="yes"/>
      <point x="61" y="27"/>
      <point x="55" y="24"/>
      <point x="-11" y="19" type="curve"/>
      <point x="-12" y="11"/>
      <point x="-12" y="7"/>
    </contour>
    <contour>
      <point x="445" y="267" type="line"/>
      <point x="434" y="298" type="line"/>
      <point x="176" y="298" type="line"/>
      <point x="165" y="267" type="line"/>
    </contour>
  </outline>
  <guideline angle="0" x="0" y="207"/>
</glyph>
<glyph name="B" format="2">
  <advance width="632"/>
  <unicode hex="0042"/>
  <unicode hex="0062"/>
  <outline>
    <contour>
      <point x="321" y="-3" type="curve" smooth="yes"/>
      <point x="362" y="-3"/>
      <point x="405" y="1"/>
      <point x="435" y="11" type="curve" smooth="yes"/>
      <point x="510" y="35"/>
      <point x="567" y="101"/>
      <point x="567" y="190" type="curve" smooth="yes"/>
      <point x="567" y="297"/>
      <point x="485" y="363"/>
      <point x="401" y="376" type="curve"/>
      <point x="401" y="378" type="line"/>
      <point x="473" y="409"/>
      <point x="528" y="456"/>
      <point x="528" y="546" type="curve" smooth="yes"/>
      <point x="528" y="647"/>
      <point x="459" y="701"/>
      <point x="322" y="701" type="curve" smooth="yes"/>
      <point x="296" y="701"/>
      <point x="240" y="699"/>
      <point x="209" y="699" type="curve" smooth="yes"/>
      <point x="177" y="699"/>
      <point x="126" y="701"/>
      <point x="94" y="701" type="curve"/>
      <point x="93" y="693"/>
      <point x="93" y="689"/>
      <point x="94" y="681" type="curve"/>
      <point x="161" y="676"/>
      <point x="165" y="674"/>
      <point x="165" y="614" type="curve" smooth="yes"/>
      <point x="165" y="77" type="line" smooth="yes"/>
      <point x="165" y="25"/>
      <point x="162" y="25"/>
      <point x="94" y="19" type="curve"/>
      <point x="93" y="11"/>
      <point x="93" y="7"/>
      <point x="94" y="-1" type="curve"/>
      <point x="121" y="-1"/>
      <point x="184" y="1"/>
      <point x="207" y="1" type="curve" smooth="yes"/>
      <point x="240" y="1"/>
      <point x="279" y="-3"/>
    </contour>
    <contour>
      <point x="230" y="349" type="line"/>
      <point x="253" y="352"/>
      <point x="281" y="353"/>
      <point x="297" y="353" type="curve" smooth="yes"/>
      <point x="418" y="353"/>
      <point x="480" y="295"/>
      <point x="480" y="183" type="curve" smooth="yes"/>
      <point x="480" y="79"/>
      <point x="427" y="27"/>
      <point x="324" y="27" type="curve" smooth="yes"/>
      <point x="304" y="27"/>
      <point x="272" y="29"/>
      <point x="244" y="33" type="curve"/>
      <point x="244" y="667" type="line"/>
      <point x="265" y="669"/>
      <point x="282" y="671"/>
      <point x="301" y="671" type="curve" smooth="yes"/>
      <point x="393" y="671"/>
      <point x="443" y="625"/>
      <point x="443" y="528" type="curve" smooth="yes"/>
      <point x="443" y="424"/>
      <point x="386" y="382"/>
      <point x="274" y="382" type="curve" smooth="yes"/>
      <point x="264" y="382"/>
      <point x="244" y="382"/>
      <point x="230" y="384" type="curve"/>
    </contour>
  </outline>
</glyph>
<glyph name="M" format="2">
  <advance width="1024"/>
  <unicode hex="004D"/>
  <unicode hex="006D"/>
  <outline>
    <contour>
      <point x="507" y="111" type="line"/>
      <point x="269" y="700" type="line"/>
      <point x="249" y="699"/>
      <point x="222" y="699"/>
      <point x="207" y="699" type="curve" smooth="yes"/>
      <point x="165" y="699"/>
      <point x="128" y="701"/>
      <point x="95" y="701" type="curve"/>
      <point x="94" y="693"/>
      <point x="94" y="690"/>
      <point x="95" y="682" type="curve"/>
      <point x="166" y="676"/>
      <point x="172" y="675"/>
      <point x="170" y="624" type="curve" smooth="yes"/>
      <point x="150" y="85" type="line" smooth="yes"/>
      <point x="148" y="28"/>
      <point x="142" y="26"/>
      <point x="73" y="18" type="curve"/>
      <point x="72" y="11"/>
      <point x="72" y="7"/>
      <point x="73" y="-1" type="curve"/>
      <point x="85" y="-1"/>
      <point x="157" y="1"/>
      <point x="168" y="1" type="curve" smooth="yes"/>
      <point x="184" y="1"/>
      <point x="243" y="-1"/>
      <point x="258" y="-1" type="curve"/>
      <point x="259" y="7"/>
      <point x="259" y="10"/>
      <point x="258" y="18" type="curve"/>
      <point x="189" y="27"/>
      <point x="185" y="28"/>
      <point x="187" y="76" type="curve" smooth="yes"/>
      <point x="206" y="669" type="line"/>
      <point x="199" y="661" type="line"/>
      <point x="465" y="-3" type="line"/>
      <point x="475" y="-3"/>
      <point x="492" y="-2"/>
      <point x="499" y="1" type="curve"/>
      <point x="779" y="673" type="line"/>
      <point x="774" y="669" type="line"/>
      <point x="783" y="76" type="line" smooth="yes"/>
      <point x="784" y="25"/>
      <point x="777" y="24"/>
      <point x="711" y="18" type="curve"/>
      <point x="710" y="10"/>
      <point x="710" y="7"/>
      <point x="711" y="-1" type="curve"/>
      <point x="727" y="-1"/>
      <point x="808" y="1"/>
      <point x="823" y="1" type="curve" smooth="yes"/>
      <point x="839" y="1"/>
      <point x="925" y="-1"/>
      <point x="941" y="-1" type="curve"/>
      <point x="942" y="7"/>
      <point x="942" y="11"/>
      <point x="941" y="18" type="curve"/>
      <point x="870" y="24"/>
      <point x="864" y="24"/>
      <point x="863" y="85" type="curve" smooth="yes"/>
      <point x="854" y="624" type="line" smooth="yes"/>
      <point x="853" y="676"/>
      <point x="857" y="676"/>
      <point x="926" y="682" type="curve"/>
      <point x="927" y="690"/>
      <point x="927" y="693"/>
      <point x="926" y="701" type="curve"/>
      <point x="910" y="701"/>
      <point x="830" y="699"/>
      <point x="814" y="699" type="curve" smooth="yes"/>
      <point x="799" y="699"/>
      <point x="774" y="699"/>
      <point x="754" y="700" type="curve"/>
    </contour>
  </outline>
</glyph>
<glyph name="Z" format="2">
  <advance width="673"/>
  <unicode hex="005A"/>
  <unicode hex="007A"/>
  <outline>
    <contour>
      <point x="596" y="685" type="line"/>
      <point x="596" y="691"/>
      <point x="594" y="696"/>
      <point x="593" y="700" type="curve"/>
      <point x="560" y="700"/>
      <point x="510" y="698"/>
      <point x="363" y="698" type="curve" smooth="yes"/>
      <point x="268" y="698"/>
      <point x="182" y="698"/>
      <point x="103" y="701" type="curve"/>
      <point x="99" y="660"/>
      <point x="93" y="612"/>
      <point x="85" y="564" type="curve"/>
      <point x="93" y="563"/>
      <point x="97" y="563"/>
      <point x="105" y="564" type="curve"/>
      <point x="114" y="601"/>
      <point x="126" y="632"/>
      <point x="140" y="647" type="curve" smooth="yes"/>
      <point x="157" y="666"/>
      <point x="184" y="669"/>
      <point x="222" y="669" type="curve" smooth="yes"/>
      <point x="502" y="669" type="line"/>
      <point x="497" y="678" type="line"/>
      <point x="65" y="14" type="line"/>
      <point x="65" y="9"/>
      <point x="66" y="4"/>
      <point x="68" y="-1" type="curve"/>
      <point x="107" y="-1"/>
      <point x="149" y="1"/>
      <point x="292" y="1" type="curve" smooth="yes"/>
      <point x="471" y="1"/>
      <point x="561" y="0"/>
      <point x="580" y="0" type="curve"/>
      <point x="583" y="36"/>
      <point x="592" y="89"/>
      <point x="603" y="149" type="curve"/>
      <point x="596" y="150"/>
      <point x="592" y="150"/>
      <point x="585" y="149" type="curve"/>
      <point x="573" y="109"/>
      <point x="557" y="79"/>
      <point x="544" y="62" type="curve" smooth="yes"/>
      <point x="525" y="38"/>
      <point x="501" y="31"/>
      <point x="447" y="31" type="curve" smooth="yes"/>
      <point x="158" y="31" type="line"/>
      <point x="165" y="23" type="line"/>
    </contour>
  </outline>
</glyph>
<glyph name="backslash" format="2">
  <advance width="489"/>
  <unicode hex="005C"/>
  <outline>
    <contour>
      <point x="408" y="-177" type="line"/>
      <point x="455" y="-177" type="line"/>
      <point x="128" y="748" type="line"/>
      <point x="78" y="748" type="line"/>
    </contour>
  </outline>
</glyph>
<glyph name="underscore" format="2">
  <advance width="400"/>
  <unicode hex="005F"/>
  <outline>
    <contour>
      <point x="-35" y="-72" type="line"/>
      <point x="-35" y="-110" type="line"/>
      <point x="435" y="-110" type="line"/>
      <point x="435" y="-72" type="line"/>
    </contour>
  </outline>
  <guideline angle="0" x="0" y="-110"/>
</glyph>
<glyph name="ordfeminine" format="2">
  <advance width="381"/>
  <unicode hex="00AA"/>
  <outline>
    <contour>
      <point x="286" y="299" type="curve" smooth="yes"/>
      <point x="313" y="299"/>
      <point x="340" y="308"/>
      <point x="368" y="335" type="curve"/>
      <point x="367" y="339"/>
      <point x="366" y="341"/>
      <point x="363" y="346" type="curve"/>
      <point x="342" y="339"/>
      <point x="329" y="338"/>
      <point x="318" y="338" type="curve" smooth="yes"/>
      <point x="301" y="338"/>
      <point x="294" y="348"/>
      <point x="294" y="366" type="curve" smooth="yes"/>
      <point x="294" y="380"/>
      <point x="297" y="530"/>
      <point x="297" y="554" type="curve" smooth="yes"/>
      <point x="297" y="602"/>
      <point x="262" y="630"/>
      <point x="203" y="630" type="curve" smooth="yes"/>
      <point x="132" y="630"/>
      <point x="50" y="592"/>
      <point x="50" y="549" type="curve" smooth="yes"/>
      <point x="50" y="531"/>
      <point x="61" y="520"/>
      <point x="80" y="520" type="curve" smooth="yes"/>
      <point x="112" y="520"/>
      <point x="138" y="556"/>
      <point x="131" y="603" type="curve"/>
      <point x="123" y="587" type="line"/>
      <point x="129" y="596"/>
      <point x="152" y="600"/>
      <point x="169" y="600" type="curve" smooth="yes"/>
      <point x="212" y="600"/>
      <point x="240" y="581"/>
      <point x="240" y="550" type="curve" smooth="yes"/>
      <point x="240" y="533"/>
      <point x="239" y="495"/>
      <point x="239" y="470" type="curve" smooth="yes"/>
      <point x="237" y="356" type="line"/>
      <point x="238" y="319"/>
      <point x="258" y="299"/>
    </contour>
    <contour>
      <point x="130" y="298" type="curve" smooth="yes"/>
      <point x="170" y="298"/>
      <point x="206" y="317"/>
      <point x="240" y="355" type="curve"/>
      <point x="242" y="372" type="line"/>
      <point x="207" y="348"/>
      <point x="183" y="339"/>
      <point x="161" y="339" type="curve" smooth="yes"/>
      <point x="131" y="339"/>
      <point x="112" y="357"/>
      <point x="112" y="391" type="curve" smooth="yes"/>
      <point x="112" y="457"/>
      <point x="187" y="466"/>
      <point x="240" y="470" type="curve"/>
      <point x="244" y="492" type="line"/>
      <point x="107" y="481"/>
      <point x="40" y="443"/>
      <point x="40" y="377" type="curve" smooth="yes"/>
      <point x="40" y="328"/>
      <point x="76" y="298"/>
    </contour>
    <contour>
      <point x="332" y="216" type="line"/>
      <point x="333" y="226"/>
      <point x="333" y="236"/>
      <point x="332" y="247" type="curve"/>
      <point x="53" y="247" type="line"/>
      <point x="52" y="236"/>
      <point x="52" y="226"/>
      <point x="53" y="216" type="curve"/>
    </contour>
  </outline>
</glyph>
<glyph name="degree" format="2">
  <advance width="406"/>
  <unicode hex="00B0"/>
  <outline>
    <contour>
      <point x="50" y="477" type="curve" smooth="yes"/>
      <point x="50" y="393"/>
      <point x="119" y="324"/>
      <point x="203" y="324" type="curve" smooth="yes"/>
      <point x="286" y="324"/>
      <point x="356" y="394"/>
      <point x="356" y="477" type="curve" smooth="yes"/>
      <point x="356" y="561"/>
      <point x="287" y="630"/>
      <point x="203" y="630" type="curve" smooth="yes"/>
      <point x="118" y="630"/>
      <point x="50" y="562"/>
    </contour>
    <contour>
      <point x="94" y="477" type="curve" smooth="yes"/>
      <point x="94" y="538"/>
      <point x="141" y="589"/>
      <point x="203" y="589" type="curve" smooth="yes"/>
      <point x="265" y="589"/>
      <point x="312" y="540"/>
      <point x="312" y="477" type="curve" smooth="yes"/>
      <point x="312" y="414"/>
      <point x="264" y="365"/>
      <point x="203" y="365" type="curve" smooth="yes"/>
      <point x="142" y="365"/>
      <point x="94" y="416"/>
    </contour>
  </outline>
</glyph>
<glyph name="questiondown" format="2">
  <advance width="408"/>
  <unicode hex="00BF"/>
  <outline>
    <contour>
      <point x="264" y="538" type="line"/>
      <point x="256" y="539"/>
      <point x="246" y="539"/>
      <point x="238" y="538" type="curve"/>
      <point x="227" y="409" type="line"/>
      <point x="239" y="419" type="line"/>
      <point x="103" y="421"/>
      <point x="50" y="374"/>
      <point x="50" y="265" type="curve" smooth="yes"/>
      <point x="50" y="213"/>
      <point x="68" y="169"/>
      <point x="88" y="130" type="curve" smooth="yes"/>
      <point x="129" y="53"/>
      <point x="210" y="-12"/>
      <point x="275" y="-12" type="curve" smooth="yes"/>
      <point x="315" y="-12"/>
      <point x="343" y="8"/>
      <point x="343" y="34" type="curve" smooth="yes"/>
      <point x="343" y="60"/>
      <point x="319" y="76"/>
      <point x="292" y="76" type="curve" smooth="yes"/>
      <point x="268" y="76"/>
      <point x="242" y="67"/>
      <point x="215" y="48" type="curve"/>
      <point x="234" y="42" type="line"/>
      <point x="146" y="79"/>
      <point x="93" y="164"/>
      <point x="93" y="251" type="curve" smooth="yes"/>
      <point x="93" y="314"/>
      <point x="121" y="347"/>
      <point x="256" y="347" type="curve"/>
      <point x="257" y="347"/>
      <point x="265" y="347"/>
      <point x="286" y="346" type="curve"/>
    </contour>
    <contour>
      <point x="198" y="654" type="curve" smooth="yes"/>
      <point x="198" y="624"/>
      <point x="221" y="600"/>
      <point x="250" y="600" type="curve" smooth="yes"/>
      <point x="283" y="600"/>
      <point x="304" y="625"/>
      <point x="304" y="654" type="curve" smooth="yes"/>
      <point x="304" y="682"/>
      <point x="283" y="708"/>
      <point x="250" y="708" type="curve" smooth="yes"/>
      <point x="221" y="708"/>
      <point x="198" y="684"/>
    </contour>
  </outline>
</glyph>
<glyph name="Eng" format="2">
  <advance width="848"/>
  <unicode hex="014A"/>
  <unicode hex="014B"/>
  <outline>
    <contour>
      <point x="667" y="-5" type="line"/>
      <point x="665" y="-62"/>
      <point x="652" y="-155"/>
      <point x="574" y="-175" type="curve"/>
      <point x="559" y="-147"/>
      <point x="537" y="-120"/>
      <point x="506" y="-120" type="curve" smooth="yes"/>
      <point x="481" y="-120"/>
      <point x="460" y="-136"/>
      <point x="460" y="-162" type="curve" smooth="yes"/>
      <point x="460" y="-193"/>
      <point x="490" y="-212"/>
      <point x="534" y="-212" type="curve" smooth="yes"/>
      <point x="578" y="-212"/>
      <point x="626" y="-195"/>
      <point x="659" y="-156" type="curve" smooth="yes"/>
      <point x="694" y="-114"/>
      <point x="709" y="-56"/>
      <point x="709" y="26" type="curve" smooth="yes"/>
      <point x="708" y="604" type="line" smooth="yes"/>
      <point x="708" y="669"/>
      <point x="711" y="673"/>
      <point x="781" y="681" type="curve"/>
      <point x="781" y="700" type="line"/>
      <point x="752" y="700"/>
      <point x="712" y="699"/>
      <point x="688" y="699" type="curve" smooth="yes"/>
      <point x="664" y="699"/>
      <point x="615" y="700"/>
      <point x="587" y="700" type="curve"/>
      <point x="586" y="693"/>
      <point x="586" y="689"/>
      <point x="587" y="681" type="curve"/>
      <point x="627" y="678"/>
      <point x="651" y="671"/>
      <point x="661" y="660" type="curve"/>
      <point x="671" y="650"/>
      <point x="671" y="631"/>
      <point x="671" y="595" type="curve" smooth="yes"/>
      <point x="671" y="121" type="line"/>
      <point x="225" y="700" type="line"/>
      <point x="208" y="699"/>
      <point x="180" y="699"/>
      <point x="176" y="699" type="curve" smooth="yes"/>
      <point x="142" y="699"/>
      <point x="107" y="701"/>
      <point x="77" y="701" type="curve"/>
      <point x="76" y="693"/>
      <point x="76" y="689"/>
      <point x="77" y="682" type="curve"/>
      <point x="151" y="674"/>
      <point x="155" y="669"/>
      <point x="155" y="592" type="curve" smooth="yes"/>
      <point x="155" y="95" type="line" smooth="yes"/>
      <point x="155" y="29"/>
      <point x="152" y="27"/>
      <point x="83" y="19" type="curve"/>
      <point x="82" y="11"/>
      <point x="82" y="7"/>
      <point x="83" y="-1" type="curve"/>
      <point x="111" y="-1"/>
      <point x="151" y="1"/>
      <point x="175" y="1" type="curve" smooth="yes"/>
      <point x="199" y="1"/>
      <point x="239" y="-1"/>
      <point x="268" y="-1" type="curve"/>
      <point x="269" y="7"/>
      <point x="269" y="11"/>
      <point x="268" y="19" type="curve"/>
      <point x="231" y="22"/>
      <point x="212" y="29"/>
      <point x="202" y="39" type="curve"/>
      <point x="193" y="49"/>
      <point x="192" y="67"/>
      <point x="192" y="104" type="curve" smooth="yes"/>
      <point x="192" y="610" type="line"/>
    </contour>
  </outline>
  <guideline angle="90" x="456" y="0"/>
</glyph>
<glyph name="halfringright" format="2">
  <advance width="268"/>
  <unicode hex="02BE"/>
  <outline>
    <contour>
      <point x="66" y="677" type="curve"/>
      <point x="111" y="677"/>
      <point x="147" y="641"/>
      <point x="147" y="575" type="curve" smooth="yes"/>
      <point x="147" y="510"/>
      <point x="113" y="474"/>
      <point x="66" y="474" type="curve"/>
      <point x="65" y="467"/>
      <point x="65" y="459"/>
      <point x="66" y="452" type="curve"/>
      <point x="150" y="452"/>
      <point x="218" y="492"/>
      <point x="218" y="580" type="curve" smooth="yes"/>
      <point x="218" y="667"/>
      <point x="151" y="699"/>
      <point x="66" y="699" type="curve"/>
      <point x="65" y="692"/>
      <point x="65" y="684"/>
    </contour>
  </outline>
</glyph>
<glyph name="halfringleft" format="2">
  <advance width="268"/>
  <unicode hex="02BF"/>
  <outline>
    <contour>
      <point x="202" y="474" type="curve"/>
      <point x="157" y="474"/>
      <point x="121" y="510"/>
      <point x="121" y="576" type="curve" smooth="yes"/>
      <point x="121" y="641"/>
      <point x="155" y="677"/>
      <point x="202" y="677" type="curve"/>
      <point x="203" y="684"/>
      <point x="203" y="692"/>
      <point x="202" y="699" type="curve"/>
      <point x="118" y="699"/>
      <point x="50" y="659"/>
      <point x="50" y="571" type="curve" smooth="yes"/>
      <point x="50" y="484"/>
      <point x="117" y="452"/>
      <point x="202" y="452" type="curve"/>
      <point x="203" y="459"/>
      <point x="203" y="467"/>
    </contour>
  </outline>
</glyph>
<glyph name="acutecomb" format="2">
  <unicode hex="0301"/>
  <outline>
    <contour>
      <point x="-187" y="805" type="curve"/>
      <point x="-194" y="834"/>
      <point x="-214" y="867"/>
      <point x="-225" y="870" type="curve"/>
      <point x="-260" y="844"/>
      <point x="-345" y="788"/>
      <point x="-386" y="761" type="curve"/>
      <point x="-384" y="753"/>
      <point x="-381" y="747"/>
      <point x="-376" y="743" type="curve"/>
      <point x="-332" y="759"/>
      <point x="-224" y="795"/>
    </contour>
  </outline>
  <guideline angle="0" x="0" y="525"/>
  <guideline angle="0" x="0" y="735"/>
</glyph>
<glyph name="dieresiscomb" format="2">
  <unicode hex="0308"/>
  <outline>
    <contour>
      <point x="-422" y="804" type="curve" smooth="yes"/>
      <point x="-422" y="778"/>
      <point x="-405" y="759"/>
      <point x="-378" y="759" type="curve" smooth="yes"/>
      <point x="-351" y="759"/>
      <point x="-333" y="778"/>
      <point x="-333" y="804" type="curve" smooth="yes"/>
      <point x="-333" y="829"/>
      <point x="-351" y="848"/>
      <point x="-378" y="848" type="curve" smooth="yes"/>
      <point x="-405" y="848"/>
      <point x="-422" y="829"/>
    </contour>
    <contour>
      <point x="-240" y="804" type="curve" smooth="yes"/>
      <point x="-240" y="778"/>
      <point x="-222" y="759"/>
      <point x="-195" y="759" type="curve" smooth="yes"/>
      <point x="-168" y="759"/>
      <point x="-151" y="778"/>
      <point x="-151" y="804" type="curve" smooth="yes"/>
      <point x="-151" y="829"/>
      <point x="-168" y="848"/>
      <point x="-195" y="848" type="curve" smooth="yes"/>
      <point x="-222" y="848"/>
      <point x="-240" y="829"/>
    </contour>
  </outline>
  <guideline angle="90" x="-154" y="0"/>
</glyph>
<glyph name="caroncomb" format="2">
  <unicode hex="030C"/>
  <outline>
    <contour>
      <point x="-280" y="796" type="line"/>
      <point x="-315" y="821"/>
      <point x="-366" y="850"/>
      <point x="-409" y="874" type="curve"/>
      <point x="-414" y="871"/>
      <point x="-418" y="865"/>
      <point x="-421" y="860" type="curve"/>
      <point x="-388" y="829"/>
      <point x="-339" y="777"/>
      <point x="-313" y="746" type="curve"/>
      <point x="-305" y="744"/>
      <point x="-296" y="743"/>
      <point x="-287" y="743" type="curve" smooth="yes"/>
      <point x="-277" y="743"/>
      <point x="-267" y="744"/>
      <point x="-260" y="746" type="curve"/>
      <point x="-234" y="777"/>
      <point x="-185" y="829"/>
      <point x="-152" y="860" type="curve"/>
      <point x="-155" y="865"/>
      <point x="-158" y="870"/>
      <point x="-164" y="874" type="curve"/>
      <point x="-206" y="850"/>
      <point x="-258" y="820"/>
      <point x="-293" y="797" type="curve"/>
    </contour>
  </outline>
  <guideline angle="0" x="0" y="525"/>
  <guideline angle="0" x="0" y="735"/>
</glyph>
<glyph name="ringbelowcomb" format="2">
  <unicode hex="0325"/>
  <outline>
    <contour>
      <point x="-387" y="-122" type="curve" smooth="yes"/>
      <point x="-387" y="-173"/>
      <point x="-341" y="-197"/>
      <point x="-286" y="-197" type="curve" smooth="yes"/>
      <point x="-233" y="-197"/>
      <point x="-187" y="-169"/>
      <point x="-187" y="-120" type="curve" smooth="yes"/>
      <point x="-187" y="-73"/>
      <point x="-226" y="-45"/>
      <point x="-286" y="-45" type="curve" smooth="yes"/>
      <point x="-339" y="-45"/>
      <point x="-387" y="-73"/>
    </contour>
    <contour>
      <point x="-286" y="-66" type="curve" smooth="yes"/>
      <point x="-259" y="-66"/>
      <point x="-243" y="-88"/>
      <point x="-243" y="-122" type="curve" smooth="yes"/>
      <point x="-243" y="-155"/>
      <point x="-258" y="-175"/>
      <point x="-286" y="-175" type="curve" smooth="yes"/>
      <point x="-314" y="-175"/>
      <point x="-331" y="-153"/>
      <point x="-331" y="-120" type="curve" smooth="yes"/>
      <point x="-331" y="-87"/>
      <point x="-315" y="-66"/>
    </contour>
  </outline>
</glyph>
<glyph name="quoteleft" format="2">
  <advance width="167"/>
  <unicode hex="2018"/>
  <outline>
    <contour>
      <point x="116" y="716" type="line"/>
      <point x="56" y="687"/>
      <point x="23" y="634"/>
      <point x="23" y="582" type="curve" smooth="yes"/>
      <point x="23" y="539"/>
      <point x="45" y="502"/>
      <point x="86" y="502" type="curve" smooth="yes"/>
      <point x="117" y="502"/>
      <point x="139" y="523"/>
      <point x="139" y="550" type="curve" smooth="yes"/>
      <point x="139" y="577"/>
      <point x="118" y="594"/>
      <point x="95" y="594" type="curve" smooth="yes"/>
      <point x="85" y="594"/>
      <point x="72" y="591"/>
      <point x="63" y="580" type="curve"/>
      <point x="76" y="576" type="line"/>
      <point x="67" y="589"/>
      <point x="65" y="599"/>
      <point x="65" y="608" type="curve" smooth="yes"/>
      <point x="65" y="647"/>
      <point x="99" y="682"/>
      <point x="127" y="697" type="curve"/>
    </contour>
  </outline>
</glyph>
<glyph name="minute" format="2">
  <advance width="180"/>
  <unicode hex="2032"/>
  <outline>
    <contour>
      <point x="148" y="654" type="line" smooth="yes"/>
      <point x="152" y="668"/>
      <point x="155" y="679"/>
      <point x="155" y="685" type="curve" smooth="yes"/>
      <point x="155" y="700"/>
      <point x="137" y="711"/>
      <point x="115" y="711" type="curve" smooth="yes"/>
      <point x="97" y="711"/>
      <point x="75" y="703"/>
      <point x="74" y="686" type="curve" smooth="yes"/>
      <point x="61" y="418" type="line"/>
      <point x="80" y="418" type="line"/>
    </contour>
  </outline>
  <guideline angle="79.242" x="-45" y="0"/>
  <guideline angle="79.242" x="37" y="0"/>
</glyph>
<glyph name="foursuperior" format="2">
  <advance width="386"/>
  <unicode hex="2074"/>
  <outline>
    <contour>
      <point x="256" y="332" type="curve" smooth="yes"/>
      <point x="267" y="332"/>
      <point x="277" y="332"/>
      <point x="286" y="333" type="curve"/>
      <point x="286" y="693" type="line" smooth="yes"/>
      <point x="286" y="706"/>
      <point x="286" y="719"/>
      <point x="287" y="751" type="curve"/>
      <point x="274" y="754"/>
      <point x="258" y="755"/>
      <point x="242" y="755" type="curve"/>
      <point x="168" y="662"/>
      <point x="96" y="578"/>
      <point x="26" y="481" type="curve"/>
      <point x="26" y="472"/>
      <point x="27" y="457"/>
      <point x="28" y="448" type="curve"/>
      <point x="354" y="448" type="line"/>
      <point x="355" y="462"/>
      <point x="356" y="478"/>
      <point x="356" y="495" type="curve"/>
      <point x="66" y="495" type="line"/>
      <point x="118" y="562"/>
      <point x="170" y="628"/>
      <point x="227" y="695" type="curve"/>
      <point x="227" y="333" type="line"/>
      <point x="236" y="332"/>
      <point x="248" y="332"/>
    </contour>
  </outline>
</glyph>
<glyph name="fivesuperior" format="2">
  <advance width="365"/>
  <unicode hex="2075"/>
  <outline>
    <contour>
      <point x="94" y="744" type="line"/>
      <point x="67" y="541" type="line"/>
      <point x="71" y="539" type="line"/>
      <point x="89" y="546"/>
      <point x="115" y="548"/>
      <point x="135" y="548" type="curve" smooth="yes"/>
      <point x="225" y="548"/>
      <point x="255" y="502"/>
      <point x="255" y="455" type="curve" smooth="yes"/>
      <point x="255" y="397"/>
      <point x="213" y="346"/>
      <point x="150" y="346" type="curve" smooth="yes"/>
      <point x="136" y="346"/>
      <point x="123" y="348"/>
      <point x="109" y="353" type="curve"/>
      <point x="124" y="341" type="line"/>
      <point x="113" y="394"/>
      <point x="90" y="415"/>
      <point x="66" y="415" type="curve" smooth="yes"/>
      <point x="50" y="415"/>
      <point x="37" y="405"/>
      <point x="37" y="385" type="curve" smooth="yes"/>
      <point x="37" y="347"/>
      <point x="88" y="324"/>
      <point x="149" y="324" type="curve" smooth="yes"/>
      <point x="231" y="324"/>
      <point x="313" y="371"/>
      <point x="313" y="472" type="curve" smooth="yes"/>
      <point x="313" y="545"/>
      <point x="267" y="601"/>
      <point x="155" y="601" type="curve" smooth="yes"/>
      <point x="140" y="601"/>
      <point x="119" y="600"/>
      <point x="95" y="595" type="curve"/>
      <point x="100" y="590" type="line"/>
      <point x="115" y="694" type="line"/>
      <point x="107" y="686" type="line"/>
      <point x="285" y="684" type="line"/>
      <point x="290" y="703"/>
      <point x="294" y="727"/>
      <point x="297" y="745" type="curve"/>
    </contour>
  </outline>
</glyph>
<glyph name="ninesuperior" format="2">
  <advance width="387"/>
  <unicode hex="2079"/>
  <outline>
    <contour>
      <point x="189" y="755" type="curve" smooth="yes"/>
      <point x="114" y="755"/>
      <point x="41" y="710"/>
      <point x="41" y="618" type="curve" smooth="yes"/>
      <point x="41" y="531"/>
      <point x="107" y="495"/>
      <point x="174" y="495" type="curve" smooth="yes"/>
      <point x="208" y="495"/>
      <point x="246" y="504"/>
      <point x="274" y="523" type="curve"/>
      <point x="280" y="552" type="line"/>
      <point x="255" y="534"/>
      <point x="228" y="525"/>
      <point x="201" y="525" type="curve" smooth="yes"/>
      <point x="154" y="525"/>
      <point x="108" y="556"/>
      <point x="108" y="634" type="curve" smooth="yes"/>
      <point x="108" y="706"/>
      <point x="146" y="731"/>
      <point x="183" y="731" type="curve" smooth="yes"/>
      <point x="228" y="731"/>
      <point x="277" y="693"/>
      <point x="277" y="574" type="curve" smooth="yes"/>
      <point x="277" y="442"/>
      <point x="216" y="345"/>
      <point x="92" y="345" type="curve" smooth="yes"/>
      <point x="82" y="345"/>
      <point x="75" y="345"/>
      <point x="66" y="346" type="curve"/>
      <point x="64" y="338"/>
      <point x="64" y="333"/>
      <point x="65" y="325" type="curve"/>
      <point x="75" y="324"/>
      <point x="84" y="324"/>
      <point x="89" y="324" type="curve" smooth="yes"/>
      <point x="268" y="324"/>
      <point x="342" y="455"/>
      <point x="342" y="581" type="curve" smooth="yes"/>
      <point x="342" y="713"/>
      <point x="260" y="755"/>
    </contour>
  </outline>
  <guideline angle="0" x="0" y="126"/>
</glyph>
<glyph name="minus" format="2">
  <advance width="509"/>
  <unicode hex="2212"/>
  <outline>
    <contour>
      <point x="463" y="326" type="line"/>
      <point x="464" y="339"/>
      <point x="464" y="356"/>
      <point x="463" y="370" type="curve"/>
      <point x="46" y="370" type="line"/>
      <point x="45" y="356"/>
      <point x="45" y="339"/>
      <point x="46" y="326" type="curve"/>
    </contour>
  </outline>
</glyph>
<glyph name="five.numr" format="2">
  <advance width="310"/>
  <outline>
    <contour>
      <point x="72" y="696" type="line"/>
      <point x="46" y="507" type="line"/>
      <point x="50" y="505" type="line"/>
      <point x="67" y="512"/>
      <point x="92" y="514"/>
      <point x="112" y="514" type="curve" smooth="yes"/>
      <point x="199" y="514"/>
      <point x="225" y="476"/>
      <point x="225" y="438" type="curve" smooth="yes"/>
      <point x="225" y="392"/>
      <point x="187" y="350"/>
      <point x="126" y="350" type="curve" smooth="yes"/>
      <point x="112" y="350"/>
      <point x="100" y="352"/>
      <point x="86" y="357" type="curve"/>
      <point x="101" y="346" type="line"/>
      <point x="90" y="397"/>
      <point x="68" y="417"/>
      <point x="45" y="417" type="curve" smooth="yes"/>
      <point x="29" y="417"/>
      <point x="17" y="408"/>
      <point x="17" y="389" type="curve" smooth="yes"/>
      <point x="17" y="351"/>
      <point x="66" y="329"/>
      <point x="124" y="329" type="curve" smooth="yes"/>
      <point x="204" y="329"/>
      <point x="281" y="370"/>
      <point x="281" y="455" type="curve" smooth="yes"/>
      <point x="281" y="517"/>
      <point x="239" y="565"/>
      <point x="131" y="565" type="curve" smooth="yes"/>
      <point x="116" y="565"/>
      <point x="96" y="564"/>
      <point x="73" y="559" type="curve"/>
      <point x="78" y="554" type="line"/>
      <point x="92" y="648" type="line"/>
      <point x="84" y="640" type="line"/>
      <point x="252" y="638" type="line"/>
      <point x="257" y="656"/>
      <point x="261" y="679"/>
      <point x="264" y="697" type="curve"/>
    </contour>
  </outline>
  <guideline angle="0" x="0" y="329"/>
</glyph>
<glyph name="six.numr" format="2">
  <advance width="343"/>
  <outline>
    <contour>
      <point x="174" y="329" type="curve" smooth="yes"/>
      <point x="245" y="329"/>
      <point x="317" y="369"/>
      <point x="317" y="451" type="curve" smooth="yes"/>
      <point x="317" y="528"/>
      <point x="255" y="559"/>
      <point x="191" y="559" type="curve" smooth="yes"/>
      <point x="159" y="559"/>
      <point x="123" y="551"/>
      <point x="96" y="532" type="curve"/>
      <point x="90" y="504" type="line"/>
      <point x="114" y="522"/>
      <point x="140" y="530"/>
      <point x="164" y="530" type="curve" smooth="yes"/>
      <point x="209" y="530"/>
      <point x="253" y="502"/>
      <point x="253" y="437" type="curve" smooth="yes"/>
      <point x="253" y="375"/>
      <point x="214" y="352"/>
      <point x="179" y="352" type="curve" smooth="yes"/>
      <point x="137" y="352"/>
      <point x="93" y="387"/>
      <point x="93" y="480" type="curve" smooth="yes"/>
      <point x="93" y="588"/>
      <point x="152" y="679"/>
      <point x="265" y="679" type="curve" smooth="yes"/>
      <point x="275" y="679"/>
      <point x="282" y="679"/>
      <point x="290" y="678" type="curve"/>
      <point x="292" y="685"/>
      <point x="292" y="692"/>
      <point x="291" y="698" type="curve"/>
      <point x="282" y="699"/>
      <point x="273" y="699"/>
      <point x="268" y="699" type="curve" smooth="yes"/>
      <point x="108" y="699"/>
      <point x="31" y="583"/>
      <point x="31" y="475" type="curve" smooth="yes"/>
      <point x="31" y="368"/>
      <point x="106" y="329"/>
    </contour>
  </outline>
</glyph>
